PathFileType  4	(X/Y/Z) C:\Users\antoi\Documents\MyRepositories\mobilecap\ResultsAnalysis
DataRate	CameraRate	NumFrames	NumMarkers	Units	OrigDataRate	OrigDataStartFrame	OrigNumFrames
100.0	100.0	4	51	mm	100.0	117	133
Frame#	Time	r_knee			r_shank_antsup			r_ankle			r_calc			r_5meta			r_toe			L_knee			L_shank_antsup			L_ankle			L_calc			L_5meta			L_toe			r_sh2			r_sh3			r_sh4			L_sh2			L_sh3			r_thigh1			r_thigh2			r_thigh3			r_thigh4			r_thigh5			L_thigh1			L_thigh2			L_thigh3			L_thigh4			r.ASIS			r.PSIS			L.ASIS			L.PSIS			C7			R_Shoulder			L_Shoulder			R_Sternum			L_Sternum			R_humerus			R_elbow_med			R_elbow_lat			R_forearm			R_wrist_radius			R_wrist_ulna			L_humerus			L_elbow_med			L_elbow_lat			L_forearm			L_wrist_radius			L_wrist_ulna			R_HJC			L_HJC			R_HJC_reg			L_HJC_reg			
		X1	Y1	Z1	X2	Y2	Z2	X3	Y3	Z3	X4	Y4	Z4	X5	Y5	Z5	X6	Y6	Z6	X7	Y7	Z7	X8	Y8	Z8	X9	Y9	Z9	X10	Y10	Z10	X11	Y11	Z11	X12	Y12	Z12	X13	Y13	Z13	X14	Y14	Z14	X15	Y15	Z15	X16	Y16	Z16	X17	Y17	Z17	X18	Y18	Z18	X19	Y19	Z19	X20	Y20	Z20	X21	Y21	Z21	X22	Y22	Z22	X23	Y23	Z23	X24	Y24	Z24	X25	Y25	Z25	X26	Y26	Z26	X27	Y27	Z27	X28	Y28	Z28	X29	Y29	Z29	X30	Y30	Z30	X31	Y31	Z31	X32	Y32	Z32	X33	Y33	Z33	X34	Y34	Z34	X35	Y35	Z35	X36	Y36	Z36	X37	Y37	Z37	X38	Y38	Z38	X39	Y39	Z39	X40	Y40	Z40	X41	Y41	Z41	X42	Y42	Z42	X43	Y43	Z43	X44	Y44	Z44	X45	Y45	Z45	X46	Y46	Z46	X47	Y47	Z47	X48	Y48	Z48	X49	Y49	Z49	X50	Y50	Z50	X51	Y51	Z51	

117	1.16000000	1381.74005	483.32563	-37.30939	1432.76196	452.43529	-49.72648	1440.90444	88.92534	-87.09225	1390.12794	56.11615	-139.08195	1581.58195	45.19332	-55.12754	1614.47597	79.93421	-107.88661	1103.40908	462.54697	-306.71788	1082.44656	372.66085	-317.11325	861.20330	135.24072	-254.07451	788.32050	123.89191	-199.70640	948.44044	37.52167	-272.03373	995.28940	47.53826	-221.18175	1454.97868	338.64792	-67.77854	1369.83973	427.31913	-7.84444	1393.67555	313.99039	-13.35165	1013.63796	430.21008	-325.24870	943.11253	332.78642	-316.97898	1353.95898	783.57755	-83.03774	1399.26808	681.66404	-80.86020	1396.87719	657.32429	-17.47998	1302.70921	761.73309	14.57351	1348.57643	656.87389	12.62539	1221.91570	768.25244	-341.05297	1194.42980	630.27077	-337.65721	1110.98366	789.62588	-339.04167	1083.43137	657.63784	-311.60045	1307.27521	927.07114	-53.62031	1107.48591	959.29342	-106.30213	1287.69359	909.00981	-287.60311	1098.09021	961.67235	-204.20270	1173.65418	1434.59229	-184.86948	1218.54991	1400.80548	-22.67737	1235.72930	1381.17241	-338.13774	1276.81454	1330.24401	-159.54117	1279.60681	1325.04799	-198.06996	1145.89278	1175.31019	70.17417	1065.26754	1105.67102	31.00162	1087.05108	1102.67094	89.07260	1091.79063	963.83700	122.53848	1089.47106	855.23553	120.46992	1053.70361	869.16821	145.52532	1275.26796	1160.96236	-419.21983	1260.69275	1042.04421	-377.95034	1279.60100	1053.80087	-434.19765	1419.06395	1005.40561	-431.10376	1515.78973	971.45173	-395.13690	1501.99251	934.86264	-416.32661	1228.30725	844.80639	-75.41491	1197.50382	844.12434	-263.58106	1235.92773	844.42921	-81.06536	1221.08264	848.19331	-235.73691	
118	1.17000000	1395.70976	483.83647	-37.55848	1445.24728	451.65524	-50.19072	1444.90787	88.29517	-87.75680	1391.87260	57.57385	-139.24277	1583.65532	40.67480	-56.15253	1617.58549	73.13241	-109.50235	1121.59432	460.95413	-305.90189	1098.45633	372.16476	-317.99372	868.92335	142.26654	-255.57371	795.84890	135.36102	-201.35955	950.20236	38.18166	-272.26437	997.41909	46.65022	-221.70046	1465.71478	337.44436	-68.94320	1383.56409	427.85673	-7.66282	1405.22644	314.15807	-13.24375	1031.53332	432.20272	-324.28578	957.41331	337.69533	-316.67790	1368.01217	784.55321	-83.92398	1412.88918	682.29396	-82.36515	1411.61259	658.29083	-18.89495	1318.28660	762.81303	14.80743	1363.85821	658.04691	11.99769	1237.02302	767.26727	-339.10647	1211.03287	628.92503	-336.63937	1125.80737	787.31325	-336.54421	1100.01191	655.07695	-309.85292	1321.51151	928.02062	-52.80093	1121.35023	959.61005	-105.51644	1301.74991	908.52601	-285.93497	1112.04967	961.19313	-203.50622	1186.70410	1434.41057	-183.07134	1231.75085	1400.18416	-20.86396	1248.42190	1380.83712	-336.71225	1290.05017	1330.01660	-157.97536	1292.59199	1324.92832	-196.54468	1161.71419	1173.32077	71.21021	1081.86527	1102.89637	31.87051	1103.76391	1100.00236	89.89104	1109.94636	961.17584	123.03691	1108.59389	852.55439	120.69494	1073.00341	866.36579	145.86003	1285.83034	1159.96220	-418.03960	1269.91335	1041.42420	-376.96277	1289.13868	1052.88819	-432.96481	1427.55876	1001.82987	-430.42163	1523.75771	965.99799	-395.08787	1509.20826	929.74631	-416.21190	1242.52023	845.53597	-73.79317	1211.76210	843.53060	-261.94556	1250.05829	845.51406	-79.53301	1235.41569	848.01735	-233.77368	
119	1.18000000	1409.50380	484.74946	-37.74027	1457.17827	451.14561	-50.48290	1448.06072	88.10745	-88.15363	1393.14244	58.69477	-139.28095	1585.15190	37.60428	-56.83811	1619.63833	67.83098	-110.82184	1141.32936	459.31716	-305.60492	1116.22287	371.91806	-319.18088	878.34679	150.12961	-257.26319	805.34685	148.25493	-203.25057	952.46011	39.50373	-272.59657	999.98869	45.96748	-222.22002	1475.65273	336.53794	-69.90087	1396.71972	428.81580	-7.39693	1415.96612	314.74662	-12.99105	1051.13871	434.32124	-323.54223	973.47463	342.81385	-316.46051	1381.50133	786.00604	-85.18808	1426.15603	683.55759	-84.19201	1426.37404	660.00377	-20.56194	1333.91300	764.59078	14.97468	1379.29460	659.98389	11.35830	1252.52845	766.53895	-337.07642	1228.49116	627.77808	-335.76417	1140.93069	784.90140	-333.86879	1117.33620	652.29011	-308.32385	1335.48938	929.59198	-51.97050	1134.97145	960.32775	-104.80319	1315.65947	908.28306	-284.22165	1125.82228	960.90715	-202.88213	1199.72109	1434.59237	-181.25701	1245.03333	1399.90732	-19.09068	1261.02780	1380.92729	-335.31079	1303.23893	1330.14142	-156.47391	1305.61681	1325.18992	-195.07949	1177.98843	1171.62628	72.24892	1098.81791	1100.40997	32.90747	1121.00885	1097.59559	90.80752	1128.90112	958.76443	123.50614	1128.64159	850.13300	120.81332	1093.23559	863.68299	146.15185	1296.18146	1159.35075	-416.79623	1278.75205	1041.31118	-375.91975	1298.36577	1052.38520	-431.61525	1435.52066	998.23000	-429.65237	1531.02029	960.09699	-395.04941	1515.56800	924.27472	-416.16986	1256.56817	846.80225	-72.03681	1225.91534	843.14153	-260.16974	1263.97812	847.18260	-77.86676	1249.62632	848.10587	-231.67792	
120	1.19000000	1422.85851	485.90285	-37.88074	1468.58577	450.84021	-50.66967	1450.34635	88.21754	-88.32461	1393.95322	59.45288	-139.24299	1586.12991	35.82109	-57.25279	1620.78056	64.00565	-111.88468	1162.62141	457.64434	-305.89073	1135.78514	371.83794	-320.54483	889.63268	158.81391	-259.08427	817.08380	162.48707	-205.34902	955.33298	41.74176	-273.03968	1003.03315	45.66534	-222.73638	1484.71668	335.83594	-70.66160	1409.12218	430.05788	-7.09500	1425.71081	315.61417	-12.68051	1072.46703	436.49542	-323.14621	991.42232	348.00737	-316.42449	1394.43968	787.81419	-86.49742	1439.09754	685.35212	-85.97739	1440.94313	662.24107	-22.16085	1349.30485	766.85051	15.19499	1394.54846	662.41983	10.84082	1268.32935	766.07559	-335.06859	1246.73101	626.86888	-335.07837	1156.29489	782.39108	-331.15680	1135.34299	649.29152	-307.05651	1349.13508	931.64883	-51.09620	1148.34548	961.38371	-104.15346	1329.37153	908.27608	-282.50705	1139.35764	960.81109	-202.30662	1212.67048	1435.11794	-179.45375	1258.35918	1399.97347	-17.39416	1273.53450	1381.44963	-333.93453	1316.34914	1330.60975	-155.06050	1318.61901	1325.80286	-193.69977	1194.67317	1170.27497	73.27948	1116.08497	1098.24953	34.11428	1138.74546	1095.49369	91.82733	1148.64317	956.65570	123.93528	1149.62646	848.02881	120.81553	1114.41648	861.14963	146.38293	1306.33471	1159.14374	-415.48638	1287.31096	1041.69109	-374.74627	1307.28656	1052.31181	-430.13391	1442.94779	994.66235	-428.82988	1537.56131	953.81142	-395.03221	1521.04769	918.51750	-416.20900	1270.37922	848.49663	-70.19361	1239.89699	842.96355	-258.30201	1277.65248	849.31073	-76.06643	1263.60195	848.43001	-229.47989	
